<?xml version="1.0" encoding="UTF-8"?>
<!DOCTYPE svg PUBLIC "-//W3C//DTD SVG 1.1//EN" "http://www.w3.org/Graphics/SVG/1.1/DTD/svg11.dtd">
<!-- Creator: CorelDRAW -->
<svg xmlns="http://www.w3.org/2000/svg" xml:space="preserve" width="2.7094mm" height="1.6136mm" version="1.1" style="shape-rendering:geometricPrecision; text-rendering:geometricPrecision; image-rendering:optimizeQuality; fill-rule:evenodd; clip-rule:evenodd"
viewBox="0 0 270.94 161.36"
 xmlns:xlink="http://www.w3.org/1999/xlink"
 xmlns:xodm="http://www.corel.com/coreldraw/odm/2003">
 <defs>
  <style type="text/css">
   <![CDATA[
    .fil0 {fill:white;fill-rule:nonzero}
   ]]>
  </style>
 </defs>
 <g id="Layer_x0020_1">
  <metadata id="CorelCorpID_0Corel-Layer"/>
  <g id="__x0023_000000ff">
   <g>
    <path class="fil0" d="M114.98 1.45c17.16,-2.39 34.77,-1.88 51.67,2.01 18.91,4.28 36.86,12.41 52.89,23.28 17.81,11.96 33.3,27.16 46.51,44.02 1.98,2.42 3.94,4.96 4.89,8l0 3.83c-1.03,3.43 -3.37,6.19 -5.58,8.91 -11.07,14.04 -23.76,26.85 -38.06,37.6 -14.68,11.06 -31.07,19.98 -48.62,25.51 -14.77,4.76 -30.33,7.06 -45.85,6.71 -21.26,-0.26 -42.31,-5.74 -61.37,-15.07 -25.35,-12.4 -47.11,-31.35 -64.68,-53.29 -2.51,-3.27 -5.53,-6.34 -6.78,-10.37l0 -3.83c0.56,-1.68 1.33,-3.28 2.34,-4.74 15.42,-20.41 34.18,-38.56 56.15,-51.83 17.23,-10.52 36.5,-17.77 56.49,-20.74l0 0zm12.21 22.86c-17.08,2.41 -32.63,13.15 -41.16,28.12 -5.27,9.15 -7.91,19.8 -7.4,30.35 0.35,14.09 6.4,27.9 16.33,37.87 10.4,10.61 25.09,16.96 39.98,16.9 11.18,0.26 22.37,-3.12 31.68,-9.3 12.67,-8.29 21.88,-21.78 24.75,-36.68 1.76,-9.45 1.22,-19.38 -1.76,-28.54 -4.76,-14.82 -15.96,-27.42 -30.08,-33.95 -9.99,-4.81 -21.4,-6.2 -32.34,-4.77z"/>
   </g>
   <path class="fil0" d="M131.96 50.19c7.16,-0.84 14.6,0.91 20.58,4.94 8.41,5.54 13.79,15.47 13.62,25.56 0.05,12.46 -8.29,24.44 -20.03,28.64 -6.13,2.5 -13.05,2.47 -19.36,0.71 -9.37,-2.68 -17.18,-10.16 -20.29,-19.38 -1.66,-4.63 -1.96,-9.67 -1.35,-14.52 1.26,-7.52 5.25,-14.59 11.24,-19.33 4.46,-3.58 9.93,-5.89 15.59,-6.62z"/>
  </g>
 </g>
</svg>
