<?xml version="1.0" encoding="UTF-8"?>
<!DOCTYPE svg PUBLIC "-//W3C//DTD SVG 1.1//EN" "http://www.w3.org/Graphics/SVG/1.1/DTD/svg11.dtd">
<!-- Creator: CorelDRAW -->
<svg xmlns="http://www.w3.org/2000/svg" xml:space="preserve" width="2.7092mm" height="2.7092mm" version="1.1" style="shape-rendering:geometricPrecision; text-rendering:geometricPrecision; image-rendering:optimizeQuality; fill-rule:evenodd; clip-rule:evenodd"
viewBox="0 0 270.92 270.92"
 xmlns:xlink="http://www.w3.org/1999/xlink"
 xmlns:xodm="http://www.corel.com/coreldraw/odm/2003">
 <defs>
  <style type="text/css">
   <![CDATA[
    .fil0 {fill:white;fill-rule:nonzero}
   ]]>
  </style>
 </defs>
 <g id="Layer_x0020_1">
  <metadata id="CorelCorpID_0Corel-Layer"/>
  <g id="__x0023_000000ff">
   <g>
    <path class="fil0" d="M32.77 44.26c1.96,-3.96 6.74,-6.23 11.06,-5.2 3.41,0.63 5.67,3.47 7.99,5.79 21.87,21.88 43.75,43.74 65.62,65.62 22.07,22.01 44.02,44.17 66.21,66.07 12.76,12.82 25.61,25.54 38.33,38.4 2.97,2.92 3.8,7.68 1.96,11.42 -1.78,3.95 -6.33,6.34 -10.59,5.62 -2.65,-0.33 -4.86,-1.99 -6.67,-3.85 -7.71,-7.81 -15.53,-15.51 -23.24,-23.31 -3.47,0.95 -6.87,2.13 -10.35,3.04 -29.13,7.77 -60.66,6.26 -88.88,-4.38 -31.64,-11.72 -59.05,-33.75 -78.52,-61.19 -2.55,-3.27 -4.68,-6.9 -5.7,-10.97l0 -5.79c0.93,-3.53 2.62,-6.81 4.83,-9.72 12.1,-17.43 27.46,-32.52 44.88,-44.62 -4.98,-5.2 -10.22,-10.16 -15.23,-15.34 -3,-2.98 -3.67,-7.88 -1.7,-11.59l0 0zm54.02 113.78c7.33,12.14 19.37,21.34 33.02,25.18 12.79,3.71 26.95,2.79 39.03,-2.87 -5.11,-5.36 -10.45,-10.49 -15.65,-15.76 -6.31,1.2 -12.93,1 -19.04,-1.06 -10.09,-3.2 -18.58,-10.98 -22.66,-20.74 -2.99,-6.93 -3.66,-14.71 -2.19,-22.09 -5.27,-5.2 -10.4,-10.55 -15.76,-15.65 -7.89,16.72 -6.47,37.3 3.25,52.99z"/>
   </g>
   <path class="fil0" d="M87.74 52.17c25.33,-9.01 53.21,-10.43 79.43,-4.64 19.06,4.27 37.23,12.33 53.39,23.28 18.48,12.37 34.29,28.52 46.84,46.84 1.66,2.38 2.73,5.11 3.53,7.88l0 5.78c-0.78,2.65 -1.78,5.27 -3.32,7.58 -12.41,18.26 -28.14,34.32 -46.45,46.7 -11.32,-11.08 -22.39,-22.41 -33.66,-33.53 1.5,-4.16 3.15,-8.29 3.9,-12.67 3.83,-18.52 -2.51,-38.73 -16.17,-51.8 -10.83,-10.73 -26.18,-16.64 -41.38,-16.17 -7.61,0.03 -15.01,2.18 -22.03,4.96 -7.97,-8.12 -16.15,-16.05 -24.08,-24.21z"/>
   <path class="fil0" d="M127.99 92.4c6.15,-1.63 12.75,-0.98 18.78,0.9 9.84,3.1 18.15,10.59 22.34,20 3.08,7.02 4.29,15.09 2.37,22.59 -9.57,-9.34 -18.92,-18.9 -28.41,-28.31 -5,-5.08 -10.16,-10.01 -15.08,-15.18z"/>
  </g>
 </g>
</svg>
