<?xml version="1.0" encoding="UTF-8"?>
<!DOCTYPE svg PUBLIC "-//W3C//DTD SVG 1.1//EN" "http://www.w3.org/Graphics/SVG/1.1/DTD/svg11.dtd">
<!-- Creator: CorelDRAW -->
<svg xmlns="http://www.w3.org/2000/svg" xml:space="preserve" width="22.5778mm" height="22.5778mm" version="1.1" style="shape-rendering:geometricPrecision; text-rendering:geometricPrecision; image-rendering:optimizeQuality; fill-rule:evenodd; clip-rule:evenodd"
viewBox="0 0 2257.78 2257.78"
 xmlns:xlink="http://www.w3.org/1999/xlink"
 xmlns:xodm="http://www.corel.com/coreldraw/odm/2003">
 <defs>
  <style type="text/css">
   <![CDATA[
    .fil0 {fill:black;fill-rule:nonzero}
   ]]>
  </style>
 </defs>
 <g id="Layer_x0020_1">
  <metadata id="CorelCorpID_0Corel-Layer"/>
  <g id="__x0023_000000ff">
   <path class="fil0" d="M1105.25 0l56.05 0c41.37,7.45 82.55,20.33 117.61,44.14 31.48,20.68 56.22,49.48 82.86,75.76 251.44,254.18 504.29,506.99 755.74,761.21 35.27,35.27 70.2,70.95 105.83,105.87 15.79,15.35 28.05,34.27 34.44,55.39l0 31.79c-7.28,22.76 -19.45,45.34 -40.31,58.21 -29.94,19.76 -72.4,18.92 -100.49,-3.79 -28.71,-22.53 -50.05,-53 -79.03,-75.32 -1.63,209.02 -0.17,418.18 -0.66,627.2 -0.48,19.09 -4.49,38.76 -15.92,54.5 -16.84,24.48 -46.69,39.29 -76.37,37.57 -32.5,-1.01 -63.28,-21.96 -76.25,-51.72 -6.35,-14.03 -7.67,-29.64 -8.02,-44.81 0.48,-261.93 -0.18,-523.87 0.35,-785.81 0.4,-26.94 -25.49,-41.71 -41.72,-59.31 -192.17,-192.92 -383.6,-386.6 -575.9,-579.44 -23.38,-22.13 -42.74,-49.52 -71.22,-65.57 -32.63,-17.42 -75.45,-10.1 -101.21,16.27 -220.53,220.49 -441.45,440.67 -662.56,660.53 -8.64,8.38 -12.08,20.29 -11.95,32.06 0.93,258.9 -0.22,517.84 0.62,776.73 -0.18,19.93 -2.03,40.84 -12.74,58.21 -15.44,26.24 -45.2,43.35 -75.72,42.95 -33.87,0.53 -66.81,-20.77 -80.3,-51.77 -6.97,-15.48 -7.89,-32.72 -8.16,-49.39 0.71,-196.98 -0.13,-394.01 0.44,-590.99 -0.04,-9.04 -0.17,-18.04 -0.79,-26.99 -28.84,22.36 -50.36,52.57 -79.07,75.06 -27.25,21.96 -68.08,23.63 -97.76,5.55 -22.31,-12.61 -35.63,-36.07 -43.04,-59.88l0 -31.75c8.07,-29.99 30.25,-52.48 52.3,-72.94 88.5,-87.88 176.61,-176.21 264.85,-264.32 199.01,-199.36 399.17,-397.49 598.18,-596.85 23.5,-23.64 46.48,-48.38 74.87,-66.32 34.44,-22.76 74.75,-34.75 115.05,-42.03z"/>
   <path class="fil0" d="M1035.54 872.33c56.26,-52.17 151.43,-51.24 206.64,2.07 58.25,51.2 66.85,148.57 16.53,208.06 -12.21,15.69 -33.95,27.78 -33.03,50.31 0.31,275.21 0.36,550.47 0,825.68 -1.23,17.9 13.72,29.59 24.74,41.23 51.46,50.75 54.77,139.83 10.54,196.23 -23.5,32.77 -60.98,52.12 -99.31,61.87l-47.84 0c-24.34,-6.44 -48.2,-16.05 -68.66,-30.96 -30.47,-22.88 -52.21,-57.32 -59.14,-94.89 -7.62,-41.76 1.99,-87.36 28.62,-120.79 12.39,-16.93 35.81,-29.06 35.1,-52.69 -0.39,-275.21 -0.35,-550.47 0,-825.72 0.84,-22.45 -20.85,-34.58 -33.07,-50.27 -51.15,-60.29 -41.41,-159.46 18.88,-210.13z"/>
   <path class="fil0" d="M629.84 1097.23c56.23,-52.21 151.48,-51.2 206.64,2.07 56.67,49.92 66.37,143.14 20.51,203.25 -10.81,15.12 -28.14,25.53 -35.37,43.08 -3.75,20.15 -1.28,40.74 -1.5,61.07 0.27,155.89 -0.26,311.77 0.35,467.65 -0.39,16.63 -1.05,33.91 -8.24,49.3 -7.59,16.28 -20.55,29.15 -33.12,41.72 -37.31,36.16 -73.42,73.51 -110.55,109.89 -14.86,14.6 -32.77,28.27 -38.85,49.13 -7.23,23.81 -12.17,49.21 -28.31,69.01 -23.51,34.08 -61.83,54.41 -101.2,64.38l-47.85 0c-37.35,-9.48 -73.95,-28 -97.54,-59.36 -36.34,-45.06 -43.17,-111.21 -17.11,-162.85 27.87,-58.07 95.38,-95.91 159.5,-84.09 12.83,1.41 25.93,6.92 38.76,3.92 20.72,-12.21 34.66,-32.72 52.08,-48.9 16.84,-18.21 37.7,-32.9 51.63,-53.67 8.03,-19.71 3.62,-41.76 4.28,-62.48 -0.31,-144.2 -0.22,-288.49 0.09,-432.68 0.71,-23.64 -22.67,-35.81 -35.06,-52.7 -48.94,-60.63 -38.54,-157.69 20.86,-207.74z"/>
   <path class="fil0" d="M1436.65 1229.3c52.6,-52.74 144.06,-57.37 201.74,-10.19 56.66,42.69 75.67,126.08 43.52,189.31 -9.96,24.92 -33.91,39.73 -47.75,61.87 -5.65,19.32 -2.25,39.95 -2.69,59.89 0.17,97.14 0.31,194.33 -0.27,291.48 -1.06,15.43 6.97,29.1 18.17,39.07 24.12,22.88 47.71,46.3 70.51,70.55 8.12,7.76 16.45,17.6 28.44,18.57 19.94,1.59 40.22,-1.32 59.89,3.31 29.68,7.14 57.19,23.28 77.87,45.81 46.75,49.04 54.24,129.78 17.11,186.53 -23.1,38.24 -63.98,61.83 -106.58,72.28l-47.8 0c-24.34,-6.44 -48.2,-16.01 -68.66,-30.96 -25.75,-19.31 -45.16,-46.92 -54.99,-77.61 -6.44,-20.46 -4.67,-42.24 -7.8,-63.19 -1.5,-12.04 -10.9,-20.64 -18.97,-28.71 -33.33,-31.35 -64.69,-64.69 -97.63,-96.39 -14.06,-13.98 -29.06,-27.92 -37.61,-46.13 -7.23,-15.34 -7.9,-32.63 -8.25,-49.26 0.62,-126.69 0,-253.38 0.49,-380.03 0.88,-22.48 -20.82,-34.57 -33.03,-50.27 -49.66,-58.6 -42.16,-154.29 14.29,-205.93z"/>
  </g>
 </g>
</svg>
